<svg xmlns="http://www.w3.org/2000/svg" viewBox="0 0 63.73 19.03"><defs><style>.cls-1{fill:#d25d5d;}.cls-2{fill:#e7d3d3;}.cls-3{fill:#eee;}</style></defs><title>Ativo 4</title><g id="Camada_2" data-name="Camada 2"><g id="Camada_1-2" data-name="Camada 1"><path class="cls-1" d="M18.86,9.42a9.44,9.44,0,0,1-14.55,8c-.21-.14-.32-.11-.48.07-.36.44-.75.85-1.12,1.28-.14.16-.25.16-.41,0-.45-.42-.91-.82-1.38-1.23-.16-.14-.17-.26,0-.43.38-.4.74-.83,1.13-1.23.2-.2.19-.34,0-.55a8.53,8.53,0,0,1-2-4.43A9.12,9.12,0,0,1,2.77,2.82,9.19,9.19,0,0,1,10,.08a9.41,9.41,0,0,1,8.72,7.78A6.6,6.6,0,0,1,18.86,9.42ZM9.41,1.29a8.2,8.2,0,1,0,0,16.4,8.17,8.17,0,0,0,8.24-8.15A8.13,8.13,0,0,0,9.41,1.29Z"/><path class="cls-1" d="M17.18,9.46a7.75,7.75,0,1,1-7.85-7.7A7.75,7.75,0,0,1,17.18,9.46Zm-7.76,6.9a6.88,6.88,0,1,0-6.9-7A6.88,6.88,0,0,0,9.42,16.36Z"/><path class="cls-1" d="M14,9.37a4.53,4.53,0,1,1-4.48-4.5A4.55,4.55,0,0,1,14,9.37Zm-1.16.09a3.38,3.38,0,1,0-3.5,3.31A3.4,3.4,0,0,0,12.8,9.46Z"/><path class="cls-1" d="M9.45,7.17a2.28,2.28,0,0,1,2.22,2.22,2.28,2.28,0,0,1-2.22,2.24,2.25,2.25,0,0,1-2.12-3c.11-.31.16-.32.38-.08a.66.66,0,0,0,1,.11.75.75,0,0,0,.05-1c-.2-.25-.19-.3.13-.38S9.26,7.2,9.45,7.17Z"/><path class="cls-2" d="M41.29,9.56A9.4,9.4,0,0,1,33,19a9.22,9.22,0,0,1-6.3-1.43c-.21-.13-.32-.11-.48.08-.36.43-.75.85-1.12,1.28a.25.25,0,0,1-.41,0q-.68-.63-1.38-1.23c-.16-.15-.17-.27,0-.43.38-.41.74-.83,1.13-1.23.2-.2.19-.35,0-.56A8.56,8.56,0,0,1,22.53,11,9.14,9.14,0,0,1,25.2,3,9.18,9.18,0,0,1,32.43.22,9.41,9.41,0,0,1,41.15,8,6.69,6.69,0,0,1,41.29,9.56ZM31.84,1.43a8.2,8.2,0,1,0,8.24,8.25A8.18,8.18,0,0,0,31.84,1.43Z"/><path class="cls-2" d="M39.61,9.6a7.75,7.75,0,1,1-7.85-7.7A7.75,7.75,0,0,1,39.61,9.6Zm-7.76,6.9a6.88,6.88,0,1,0-6.91-7A6.88,6.88,0,0,0,31.85,16.5Z"/><path class="cls-2" d="M36.39,9.51A4.53,4.53,0,1,1,31.9,5,4.56,4.56,0,0,1,36.39,9.51Zm-1.16.09a3.38,3.38,0,1,0-3.5,3.3A3.35,3.35,0,0,0,35.23,9.6Z"/><path class="cls-2" d="M31.87,7.3A2.29,2.29,0,0,1,34.1,9.52a2.24,2.24,0,1,1-4.35-.76c.12-.3.17-.31.39-.07a.66.66,0,0,0,1,.11.75.75,0,0,0,.05-1c-.2-.25-.19-.3.13-.38A5,5,0,0,1,31.87,7.3Z"/><path class="cls-3" d="M63.72,9.35a9.41,9.41,0,0,1-8.25,9.4,9.28,9.28,0,0,1-6.3-1.43c-.21-.14-.32-.11-.48.08-.36.43-.75.84-1.12,1.27-.14.16-.25.17-.41,0l-1.38-1.23c-.17-.14-.17-.26,0-.42.39-.41.75-.84,1.14-1.23a.35.35,0,0,0,0-.56A8.6,8.6,0,0,1,45,10.82a9.14,9.14,0,0,1,2.67-8.07A9.16,9.16,0,0,1,54.85,0a9.4,9.4,0,0,1,8.73,7.77A7.18,7.18,0,0,1,63.72,9.35ZM54.27,1.23a8.2,8.2,0,1,0,8.24,8.24A8.18,8.18,0,0,0,54.27,1.23Z"/><path class="cls-3" d="M62,9.4a7.75,7.75,0,1,1-7.84-7.7A7.74,7.74,0,0,1,62,9.4Zm-7.75,6.9a6.89,6.89,0,1,0-6.91-7A6.9,6.9,0,0,0,54.28,16.3Z"/><path class="cls-3" d="M58.81,9.3a4.52,4.52,0,1,1-4.48-4.5A4.54,4.54,0,0,1,58.81,9.3Zm-1.16.09a3.37,3.37,0,1,0-3.49,3.31A3.38,3.38,0,0,0,57.65,9.39Z"/><path class="cls-3" d="M54.3,7.1a2.28,2.28,0,0,1,2.23,2.22,2.24,2.24,0,1,1-4.35-.76c.12-.3.17-.31.39-.08a.64.64,0,0,0,1,.11.74.74,0,0,0,0-1c-.21-.25-.19-.31.13-.38A5,5,0,0,1,54.3,7.1Z"/></g></g></svg>