<svg xmlns="http://www.w3.org/2000/svg" viewBox="0 0 18.87 18.83"><defs><style>.cls-1{fill:#b9375d;}</style></defs><title>Icon1</title><g id="Camada_2" data-name="Camada 2"><g id="Camada_1-2" data-name="Camada 1"><path class="cls-1" d="M18.86,9.35a9.41,9.41,0,0,1-8.24,9.4,9.29,9.29,0,0,1-6.31-1.43c-.21-.14-.32-.11-.48.08-.36.43-.75.84-1.12,1.27-.14.16-.25.17-.41,0L.92,17.46c-.16-.14-.17-.26,0-.42.38-.41.74-.84,1.13-1.23a.35.35,0,0,0,0-.56,8.53,8.53,0,0,1-2-4.43A9.14,9.14,0,0,1,2.77,2.75,9.18,9.18,0,0,1,10,0a9.4,9.4,0,0,1,8.72,7.77A6.6,6.6,0,0,1,18.86,9.35ZM9.41,1.23a8.2,8.2,0,1,0,0,16.39,8.16,8.16,0,0,0,8.24-8.15A8.12,8.12,0,0,0,9.41,1.23Z"/><path class="cls-1" d="M17.18,9.4A7.75,7.75,0,1,1,9.33,1.7,7.75,7.75,0,0,1,17.18,9.4ZM9.42,16.3a6.89,6.89,0,1,0-6.9-7A6.89,6.89,0,0,0,9.42,16.3Z"/><path class="cls-1" d="M14,9.3A4.53,4.53,0,1,1,9.48,4.8,4.55,4.55,0,0,1,14,9.3Zm-1.16.09A3.38,3.38,0,1,0,9.3,12.7,3.4,3.4,0,0,0,12.8,9.39Z"/><path class="cls-1" d="M9.45,7.1a2.28,2.28,0,0,1,2.22,2.22,2.28,2.28,0,0,1-2.22,2.24,2.25,2.25,0,0,1-2.12-3c.11-.3.16-.31.38-.08a.64.64,0,0,0,1,.11.74.74,0,0,0,.05-1c-.2-.25-.19-.31.13-.38A5.21,5.21,0,0,1,9.45,7.1Z"/></g></g></svg>