<svg xmlns="http://www.w3.org/2000/svg" viewBox="0 0 64.09 39.82"><defs><style>.cls-1,.cls-3{fill:#ac3759;}.cls-2{fill:#c65b5a;}.cls-3{font-size:11.19px;font-family:Montserrat-Bold, Montserrat;font-weight:700;}.cls-4{letter-spacing:-0.02em;}.cls-5{letter-spacing:-0.01em;}.cls-6{font-family:Montserrat-Regular, Montserrat;font-weight:400;}</style></defs><title>LogoPrincipalTwo</title><g id="Camada_2" data-name="Camada 2"><g id="Camada_1-2" data-name="Camada 1"><path class="cls-1" d="M43.29,11.15a11.22,11.22,0,0,1-9.84,11.2,11.05,11.05,0,0,1-7.51-1.7.36.36,0,0,0-.57.09c-.43.52-.9,1-1.34,1.52-.17.19-.3.2-.48,0-.54-.49-1.1-1-1.65-1.46a.3.3,0,0,1,0-.51c.46-.48.88-1,1.35-1.47a.41.41,0,0,0,0-.66,10.2,10.2,0,0,1-2.33-5.28A10.88,10.88,0,0,1,24.1,3.28,11,11,0,0,1,32.72,0a11.21,11.21,0,0,1,10.4,9.27A8.76,8.76,0,0,1,43.29,11.15ZM32,1.46a9.78,9.78,0,1,0,9.82,9.83A9.77,9.77,0,0,0,32,1.46Z"/><path class="cls-1" d="M41.28,11.2A9.24,9.24,0,1,1,31.92,2,9.24,9.24,0,0,1,41.28,11.2ZM32,19.43a8.21,8.21,0,1,0-8.23-8.34A8.21,8.21,0,0,0,32,19.43Z"/><path class="cls-2" d="M37.44,11.09A5.4,5.4,0,1,1,32.1,5.72,5.42,5.42,0,0,1,37.44,11.09Zm-1.39.11a4,4,0,1,0-4.17,3.94A4,4,0,0,0,36.05,11.2Z"/><path class="cls-2" d="M32.06,8.46a2.66,2.66,0,1,1-2.53,1.74c.14-.36.2-.37.46-.08a.78.78,0,0,0,1.18.12A.88.88,0,0,0,31.23,9c-.24-.3-.23-.36.15-.45C31.6,8.52,31.83,8.5,32.06,8.46Z"/><text class="cls-3" transform="translate(0 34.42)"><tspan class="cls-4">F</tspan><tspan x="6.98" y="0">al</tspan><tspan class="cls-5" x="17.25" y="0">c</tspan><tspan x="23.79" y="0">on</tspan><tspan class="cls-6" x="38.85" y="0">Find</tspan></text></g></g></svg>