<svg xmlns="http://www.w3.org/2000/svg" viewBox="0 0 104.78 22.41"><defs><style>.cls-1{font-size:14.26px;font-family:Montserrat-Bold, Montserrat;font-weight:700;}.cls-2{letter-spacing:-0.01em;}.cls-3{letter-spacing:0em;}.cls-4{letter-spacing:-0.01em;}.cls-5{font-family:Montserrat-Regular, Montserrat;font-weight:400;}</style></defs><title>LogoPreto</title><g id="Camada_2" data-name="Camada 2"><g id="Camada_1-2" data-name="Camada 1"><path d="M21.16,10.49A10.56,10.56,0,0,1,11.91,21a10.41,10.41,0,0,1-7.07-1.6c-.24-.16-.37-.13-.54.08-.41.49-.84.95-1.26,1.43-.16.18-.28.19-.46,0-.5-.47-1-.93-1.54-1.38-.19-.17-.2-.3,0-.48.43-.46.83-.94,1.27-1.38.23-.23.21-.39,0-.63a9.56,9.56,0,0,1-2.2-5,10.26,10.26,0,0,1,3-9.06A10.31,10.31,0,0,1,11.21,0,10.55,10.55,0,0,1,21,8.74,7.7,7.7,0,0,1,21.16,10.49ZM10.56,1.38a9.19,9.19,0,1,0,0,18.38,9.16,9.16,0,0,0,9.24-9.13A9.11,9.11,0,0,0,10.56,1.38Z"/><path d="M19.27,10.54A8.7,8.7,0,1,1,10.46,1.9,8.69,8.69,0,0,1,19.27,10.54Zm-8.71,7.74a7.72,7.72,0,1,0-7.74-7.84A7.74,7.74,0,0,0,10.56,18.28Z"/><path d="M15.66,10.44a5.08,5.08,0,1,1-5-5.06A5.11,5.11,0,0,1,15.66,10.44Zm-1.31.1a3.78,3.78,0,1,0-3.92,3.7A3.76,3.76,0,0,0,14.35,10.54Z"/><path d="M10.59,8a2.57,2.57,0,0,1,2.5,2.49A2.56,2.56,0,0,1,10.59,13,2.53,2.53,0,0,1,8.22,9.6c.13-.34.18-.35.43-.08a.74.74,0,0,0,1.11.12A.83.83,0,0,0,9.81,8.5c-.22-.28-.21-.34.15-.43C10.17,8,10.38,8,10.59,8Z"/><text class="cls-1" transform="translate(23.07 15.52)"><tspan class="cls-2">F</tspan><tspan class="cls-3" x="8.9" y="0">al</tspan><tspan class="cls-4" x="22" y="0">c</tspan><tspan class="cls-3" x="30.33" y="0">on</tspan><tspan class="cls-5" x="49.53" y="0">Find</tspan></text></g></g></svg>