<svg xmlns="http://www.w3.org/2000/svg" viewBox="0 0 104.32 22.31"><defs><style>.cls-1,.cls-3{fill:#ac3759;}.cls-2{fill:#c65b5a;}.cls-3{font-size:14.2px;font-family:Montserrat-Bold, Montserrat;font-weight:700;}.cls-4{letter-spacing:-0.01em;}.cls-5{letter-spacing:0em;}.cls-6{letter-spacing:-0.01em;}.cls-7{font-family:Montserrat-Regular, Montserrat;font-weight:400;}</style></defs><title>LogoPrincipal</title><g id="Camada_2" data-name="Camada 2"><g id="Camada_1-2" data-name="Camada 1"><path class="cls-1" d="M21.07,10.45a10.52,10.52,0,0,1-9.21,10.49,10.37,10.37,0,0,1-7-1.6c-.23-.15-.36-.12-.53.09-.4.48-.84.94-1.26,1.42-.15.18-.27.19-.45,0-.5-.46-1-.92-1.54-1.37-.19-.16-.19-.29,0-.48.43-.45.83-.93,1.27-1.37.23-.23.21-.39,0-.62a9.55,9.55,0,0,1-2.19-5,10.2,10.2,0,0,1,3-9,10.26,10.26,0,0,1,8.07-3A10.51,10.51,0,0,1,20.91,8.7,8.32,8.32,0,0,1,21.07,10.45ZM10.51,1.37a9.16,9.16,0,1,0,0,18.31,9.12,9.12,0,0,0,9.2-9.1A9.07,9.07,0,0,0,10.51,1.37Z"/><path class="cls-1" d="M19.18,10.49a8.65,8.65,0,1,1-8.76-8.6A8.64,8.64,0,0,1,19.18,10.49ZM10.52,18.2a7.69,7.69,0,1,0-7.71-7.81A7.69,7.69,0,0,0,10.52,18.2Z"/><path class="cls-2" d="M15.59,10.39a5.06,5.06,0,1,1-5-5A5.08,5.08,0,0,1,15.59,10.39Zm-1.3.1a3.77,3.77,0,1,0-3.91,3.69A3.74,3.74,0,0,0,14.29,10.49Z"/><path class="cls-2" d="M10.55,7.93a2.49,2.49,0,0,1,0,5A2.52,2.52,0,0,1,8.18,9.56c.13-.34.19-.35.43-.08a.73.73,0,0,0,1.1.12.82.82,0,0,0,.06-1.14c-.23-.28-.21-.34.15-.42A4.37,4.37,0,0,1,10.55,7.93Z"/><text class="cls-3" transform="translate(22.97 15.45)"><tspan class="cls-4">F</tspan><tspan class="cls-5" x="8.86" y="0">al</tspan><tspan class="cls-6" x="21.9" y="0">c</tspan><tspan x="30.2" y="0">on</tspan><tspan class="cls-7" x="49.31" y="0">Find</tspan></text></g></g></svg>